# File created by Blade
# Date/Time:  Wed Jan 21 15:15:22 2015
# Frame Rate: 120.000 fps
#------------------------------------------------------
:FULLY-SPECIFIED
:DEGREES
847
root 22.321096 38.636917 -19.349495 183.129981 -44.865111 -99.043601
Spine -35.067222 -10.894010 -0.111089
Head -20.287622 34.493569 36.467290
LeftShoulder -8.978747 -26.463851 11.716465
LeftArm 4.518402 13.670991 -39.731815
LeftForeArm -3.177961 -0.000000 6.205854
LeftHand -0.378456 -0.000000 -1.016748
LeftHandThumb1 -26.253704 0.000000 33.147579
RightShoulder -26.182004 -20.213562 11.433302
RightArm -9.153929 14.542474 50.208811
RightForeArm -48.052765 -0.000000 8.804419
RightHand -1.243583 -0.000000 25.176139
RightHandThumb1 -24.326973 -0.000000 -32.862282
LeftUpLeg -93.921755 38.322178 -15.916089
LeftLeg -6.948882 -0.000000 0.000000
LeftFoot -10.772751 18.421930 -14.319608
LeftToeBase 32.025333 -0.000000 -0.000000
RightUpLeg 1.972738 6.374327 -15.980652
RightLeg 126.733705 -0.000000 -0.000000
RightFoot 24.060361 -35.946794 -9.548586
RightToeBase 22.025036 -0.000000 -0.000000
848
root 22.318404 38.647153 -19.343893 183.192356 -44.734228 -98.906191
Spine -35.114397 -10.862813 -0.149284
Head -20.344274 34.540627 36.577207
LeftShoulder -9.004470 -26.458238 11.762140
LeftArm 4.578884 13.632797 -39.671056
LeftForeArm -3.201430 -0.000000 6.208445
LeftHand -0.414518 -0.000000 -1.118082
LeftHandThumb1 -26.253704 0.000000 33.147579
RightShoulder -26.294553 -20.304745 11.541526
RightArm -9.015439 14.636945 50.153253
RightForeArm -48.025582 -0.000000 8.743914
RightHand -1.245864 -0.000000 25.171735
RightHandThumb1 -24.326973 -0.000000 -32.862282
LeftUpLeg -94.188539 38.418691 -16.025625
LeftLeg -6.960114 -0.000000 0.000000
LeftFoot -10.739840 18.338606 -14.381433
LeftToeBase 32.166560 -0.000000 -0.000000
RightUpLeg 1.957079 6.376084 -16.064133
RightLeg 126.687584 -0.000000 -0.000000
RightFoot 24.067789 -35.884391 -9.643495
RightToeBase 21.832882 -0.000000 -0.000000
849
root 22.315987 38.657389 -19.339412 183.245881 -44.586964 -98.775662
Spine -35.145385 -10.802967 -0.202578
Head -20.405341 34.579750 36.687177
LeftShoulder -9.002140 -26.458003 11.817164
LeftArm 4.599940 13.586601 -39.639630
LeftForeArm -3.248013 0.000000 6.227666
LeftHand -0.396016 -0.000000 -1.119148
LeftHandThumb1 -26.253704 0.000000 33.147579
RightShoulder -26.322572 -20.196677 11.538082
RightArm -9.147380 14.620473 50.054012
RightForeArm -47.999032 -0.000000 8.731291
RightHand -1.146286 0.000000 25.118790
RightHandThumb1 -24.326973 -0.000000 -32.862282
LeftUpLeg -94.418987 38.539749 -16.096543
LeftLeg -6.973070 -0.000000 0.000000
LeftFoot -10.702004 18.276546 -14.422471
LeftToeBase 32.144065 -0.000000 -0.000000
RightUpLeg 1.934468 6.382458 -16.149735
RightLeg 126.655994 -0.000000 -0.000000
RightFoot 23.866162 -35.904759 -9.531436
RightToeBase 22.192224 -0.000000 -0.000000
850
root 22.314513 38.666344 -19.334575 183.305287 -44.469136 -98.679713
Spine -35.151760 -10.792838 -0.291361
Head -20.476964 34.599924 36.815568
LeftShoulder -9.002628 -26.518915 11.892293
LeftArm 4.567032 13.546135 -39.621577
LeftForeArm -3.204743 -0.000000 6.255899
LeftHand -0.316843 -0.000000 -0.945905
LeftHandThumb1 -26.253704 0.000000 33.147579
RightShoulder -26.402636 -20.298715 11.654725
RightArm -9.037088 14.782095 50.027486
RightForeArm -47.995198 -0.000000 8.706028
RightHand -1.202361 -0.000000 25.166875
RightHandThumb1 -24.326973 -0.000000 -32.862282
LeftUpLeg -94.614065 38.629811 -16.167053
LeftLeg -6.984941 -0.000000 0.000000
LeftFoot -10.644994 18.230443 -14.456916
LeftToeBase 32.081403 -0.000000 -0.000000
RightUpLeg 1.935502 6.350260 -16.256894
RightLeg 126.618363 -0.000000 -0.000000
RightFoot 23.925413 -35.852939 -9.672113
RightToeBase 22.182553 -0.000000 -0.000000
851
root 22.312429 38.674858 -19.330572 183.345064 -44.319518 -98.572004
Spine -35.142295 -10.747923 -0.368461
Head -20.565872 34.658734 36.914462
LeftShoulder -9.006844 -26.539628 11.947176
LeftArm 4.587031 13.629670 -39.564443
LeftForeArm -3.288861 -0.000000 6.278289
LeftHand -0.342912 -0.000000 -0.984651
LeftHandThumb1 -26.253704 0.000000 33.147579
RightShoulder -26.457931 -20.269375 11.714084
RightArm -9.042125 14.843373 49.949158
RightForeArm -47.999258 -0.000000 8.662941
RightHand -1.098230 -0.000000 25.163560
RightHandThumb1 -24.326973 -0.000000 -32.862282
LeftUpLeg -94.826580 38.754221 -16.237473
LeftLeg -6.972335 -0.000000 0.000000
LeftFoot -10.633106 18.187526 -14.462334
LeftToeBase 32.025869 -0.000000 -0.000000
RightUpLeg 1.932448 6.368355 -16.343500
RightLeg 126.604659 -0.000000 -0.000000
RightFoot 24.006405 -35.854407 -9.720053
RightToeBase 21.858308 -0.000000 -0.000000
852
root 22.310581 38.682845 -19.327118 183.357648 -44.182367 -98.444520
Spine -35.112930 -10.719836 -0.424641
Head -20.660828 34.675622 37.033108
LeftShoulder -9.039725 -26.532574 12.011987
LeftArm 4.637532 13.663461 -39.541348
LeftForeArm -3.369451 -0.000000 6.271969
LeftHand -0.337271 -0.000000 -0.974538
LeftHandThumb1 -26.253704 0.000000 33.147579
RightShoulder -26.517940 -20.231000 11.781547
RightArm -9.016690 14.962736 49.861835
RightForeArm -47.945054 0.000000 8.577031
RightHand -1.096990 -0.000000 25.159669
RightHandThumb1 -24.326973 -0.000000 -32.862282
LeftUpLeg -95.075415 38.865690 -16.354321
LeftLeg -6.953398 -0.000000 0.000000
LeftFoot -10.663643 18.080288 -14.586094
LeftToeBase 32.185707 -0.000000 -0.000000
RightUpLeg 1.933343 6.379192 -16.407613
RightLeg 126.587634 -0.000000 -0.000000
RightFoot 23.992579 -35.814812 -9.699161
RightToeBase 22.274019 -0.000000 -0.000000
853
root 22.309085 38.690243 -19.321274 183.419674 -44.047193 -98.333770
Spine -35.140416 -10.694774 -0.467036
Head -20.731586 34.730173 37.126166
LeftShoulder -9.070440 -26.495533 12.065142
LeftArm 4.693962 13.674504 -39.503074
LeftForeArm -3.439791 -0.000000 6.288722
LeftHand -0.404040 -0.000000 -0.934542
LeftHandThumb1 -26.253704 0.000000 33.147579
RightShoulder -26.569947 -20.297884 11.869126
RightArm -8.938029 15.155916 49.797022
RightForeArm -47.882915 0.000000 8.495760
RightHand -1.055796 -0.000000 25.087675
RightHandThumb1 -24.326973 -0.000000 -32.862282
LeftUpLeg -95.353549 38.956515 -16.493406
LeftLeg -6.929550 -0.000000 0.000000
LeftFoot -10.661760 18.030523 -14.540108
LeftToeBase 32.211559 -0.000000 -0.000000
RightUpLeg 1.883911 6.360776 -16.488274
RightLeg 126.577762 -0.000000 -0.000000
RightFoot 24.108037 -35.817176 -9.754707
RightToeBase 22.307900 -0.000000 -0.000000
854
root 22.307448 38.696416 -19.314803 183.468900 -43.930163 -98.224520
Spine -35.146733 -10.666620 -0.525266
Head -20.832230 34.758075 37.201087
LeftShoulder -9.052543 -26.499855 12.112762
LeftArm 4.690786 13.751726 -39.493224
LeftForeArm -3.495551 -0.000000 6.297286
LeftHand -0.324285 -0.000000 -0.831888
LeftHandThumb1 -26.253704 0.000000 33.147579
RightShoulder -26.586459 -20.164967 11.881573
RightArm -9.049001 15.335012 49.655042
RightForeArm -47.934055 -0.000000 8.408132
RightHand -0.969814 -0.000000 25.129279
RightHandThumb1 -24.326973 -0.000000 -32.862282
LeftUpLeg -95.644637 39.022023 -16.675623
LeftLeg -6.915567 -0.000000 0.000000
LeftFoot -10.686809 17.930521 -14.562212
LeftToeBase 32.396411 -0.000000 -0.000000
RightUpLeg 1.848471 6.334423 -16.562415
RightLeg 126.579551 -0.000000 -0.000000
RightFoot 24.305103 -35.811126 -9.816111
RightToeBase 22.074722 -0.000000 -0.000000
855
root 22.304462 38.702031 -19.308039 183.508001 -43.825367 -98.116831
Spine -35.143709 -10.664131 -0.574490
Head -20.936796 34.778775 37.286033
LeftShoulder -9.083652 -26.454688 12.143684
LeftArm 4.770125 13.715255 -39.465817
LeftForeArm -3.455172 0.000000 6.292734
LeftHand -0.317796 0.000000 -0.886468
LeftHandThumb1 -26.253704 0.000000 33.147579
RightShoulder -26.673775 -20.202729 11.983344
RightArm -8.917427 15.504742 49.587027
RightForeArm -47.950784 -0.000000 8.288631
RightHand -0.984147 -0.000000 25.172175
RightHandThumb1 -24.326973 -0.000000 -32.862282
LeftUpLeg -95.899575 39.079904 -16.829210
LeftLeg -6.914280 -0.000000 0.000000
LeftFoot -10.699234 17.852986 -14.583971
LeftToeBase 32.511987 -0.000000 -0.000000
RightUpLeg 1.824259 6.327488 -16.630254
RightLeg 126.582112 -0.000000 -0.000000
RightFoot 24.468250 -35.625559 -9.911233
RightToeBase 21.996710 -0.000000 -0.000000
856
root 22.303327 38.707735 -19.300446 183.567737 -43.712726 -98.017968
Spine -35.164321 -10.673396 -0.612110
Head -20.993229 34.810577 37.388023
LeftShoulder -9.123558 -26.421396 12.207469
LeftArm 4.816797 13.710400 -39.462845
LeftForeArm -3.485421 -0.000000 6.261107
LeftHand -0.299721 -0.000000 -0.835427
LeftHandThumb1 -26.253704 0.000000 33.147579
RightShoulder -26.686521 -20.174715 12.020628
RightArm -8.902977 15.551902 49.519649
RightForeArm -47.859666 0.000000 8.188692
RightHand -0.911536 0.000000 25.135244
RightHandThumb1 -24.326973 -0.000000 -32.862282
LeftUpLeg -96.173142 39.147372 -17.001745
LeftLeg -6.918688 -0.000000 0.000000
LeftFoot -10.713942 17.718782 -14.656837
LeftToeBase 32.739461 -0.000000 -0.000000
RightUpLeg 1.764882 6.292445 -16.709613
RightLeg 126.593997 -0.000000 -0.000000
RightFoot 24.537905 -35.588951 -9.890634
RightToeBase 22.211157 -0.000000 -0.000000
857
root 22.302275 38.714341 -19.294282 183.586375 -43.595568 -97.894101
Spine -35.151614 -10.640823 -0.661334
Head -21.085637 34.811314 37.486130
LeftShoulder -9.119636 -26.405015 12.249282
LeftArm 4.854937 13.720664 -39.464645
LeftForeArm -3.470653 -0.000000 6.253882
LeftHand -0.330082 -0.000000 -0.907019
LeftHandThumb1 -26.253704 0.000000 33.147579
RightShoulder -26.700880 -20.076790 12.054607
RightArm -8.973718 15.717514 49.417269
RightForeArm -47.911070 -0.000000 8.112401
RightHand -0.868779 -0.000000 25.168409
RightHandThumb1 -24.326973 -0.000000 -32.862282
LeftUpLeg -96.407323 39.234646 -17.112293
LeftLeg -6.907291 -0.000000 0.000000
LeftFoot -10.714669 17.599412 -14.697208
LeftToeBase 32.811736 -0.000000 -0.000000
RightUpLeg 1.725787 6.263372 -16.759028
RightLeg 126.625682 -0.000000 -0.000000
RightFoot 24.696116 -35.543636 -9.938348
RightToeBase 21.992017 -0.000000 -0.000000
858
root 22.301131 38.722453 -19.288155 183.618373 -43.475196 -97.765327
Spine -35.165555 -10.614645 -0.703929
Head -21.152028 34.877998 37.615966
LeftShoulder -9.119043 -26.434161 12.319555
LeftArm 4.839044 13.707022 -39.503922
LeftForeArm -3.527668 -0.000000 6.229413
LeftHand -0.302421 -0.000000 -0.862545
LeftHandThumb1 -26.253704 0.000000 33.147579
RightShoulder -26.802541 -20.166561 12.165934
RightArm -8.792521 15.928000 49.415793
RightForeArm -47.931599 0.000000 7.982168
RightHand -0.854519 0.000000 25.157118
RightHandThumb1 -24.326973 -0.000000 -32.862282
LeftUpLeg -96.642890 39.326416 -17.204336
LeftLeg -6.899311 -0.000000 0.000000
LeftFoot -10.726158 17.495367 -14.747300
LeftToeBase 32.999936 -0.000000 -0.000000
RightUpLeg 1.647379 6.230548 -16.806202
RightLeg 126.662962 -0.000000 -0.000000
RightFoot 24.747458 -35.493392 -9.867133
RightToeBase 22.119871 -0.000000 -0.000000
859
root 22.298927 38.730474 -19.280964 183.669196 -43.373317 -97.660488
Spine -35.185538 -10.614545 -0.768266
Head -21.213342 34.883092 37.769479
LeftShoulder -9.125424 -26.442900 12.371063
LeftArm 4.860224 13.735191 -39.504003
LeftForeArm -3.527070 -0.000000 6.214972
LeftHand -0.355757 -0.000000 -0.879580
LeftHandThumb1 -26.253704 0.000000 33.147579
RightShoulder -26.801579 -19.956102 12.148791
RightArm -8.958766 15.900585 49.314503
RightForeArm -47.907012 -0.000000 7.955603
RightHand -0.937469 -0.000000 25.253799
RightHandThumb1 -24.326973 -0.000000 -32.862282
LeftUpLeg -96.835709 39.402034 -17.265421
LeftLeg -6.904266 -0.000000 0.000000
LeftFoot -10.737349 17.424358 -14.860376
LeftToeBase 33.170097 -0.000000 -0.000000
RightUpLeg 1.575208 6.175459 -16.864978
RightLeg 126.716384 -0.000000 -0.000000
RightFoot 24.810102 -35.435851 -9.859931
RightToeBase 22.112567 -0.000000 -0.000000
